<?xml version="1.0" encoding="utf-8"?>
<!-- Generator: Adobe Illustrator 16.0.4, SVG Export Plug-In . SVG Version: 6.00 Build 0)  -->
<!DOCTYPE svg PUBLIC "-//W3C//DTD SVG 1.1//EN" "http://www.w3.org/Graphics/SVG/1.1/DTD/svg11.dtd">
<svg version="1.1" id="Layer_1" xmlns="http://www.w3.org/2000/svg" xmlns:xlink="http://www.w3.org/1999/xlink" x="0px" y="0px"
	 width="580px" height="500px" viewBox="0 0 580 500" enable-background="new 0 0 580 500" xml:space="preserve">
<path id="part-circle_2_" fill="#FFFFFF" d="M185.166,344.595c2.308-0.825,4.375-1.348,5.849-1.31
	c6.391,0.163,31.297-14.487,31.626-15.474c0.329-0.989,32.773-9.716,52.107-19.594c19.338-9.881,19.175-7.41,24.089-14.326
	c4.917-6.915,17.202-18.594,27.038-37.703c1.227-2.381,9.317,1.466,11.611,1.135c0,0-0.554-14.384-0.062-16.606
	c0.491-2.223-1.966-4.693,0.247-9.631c2.211-4.941,0.717-4.628,2.703-15.313c1.312-7.061-1.476-4.938,1.72-15.56l-0.491-6.667
	c0,0-2.336-2.099,0.368-5.187c2.335-0.864-1.491-5.3-1.229-10.001c0,0-2.888-2.409-0.431-3.335c0,0,1.169-4.691,0.309-6.297
	c-0.861-1.604-1.475-3.024-2.15-7.408c0,0-2.52-1.544-2.09-4.632c0.43-3.086-2.09,1.174-1.783-3.95c0,0-3.316,1.173-3.993-1.729
	c0,0-8.788-0.865-5.408-5.372c0,0,5.285,0.432,4.486-3.334v-7.717c0,0-4.055-1.05,0.737-4.447c4.792-3.396,1.413-0.432,0.614-3.457
	c-0.798-3.026-3.38-3.026-2.642-4.57c0.737-1.543-6.452-0.308-2.09-6.297c0,0,4.855,2.901,4.363-0.803c0,0-2.09-3.705,0.062-4.569
	c0,0,3.318-1.976,1.105-7.286c-2.213-5.31,3.503,1.421,2.643-1.975c-0.859-3.396-2.888-2.779-1.413-6.051
	c0,0,2.519-3.52,1.168-4.445c-1.354-0.926-7.19,0.741-6.698-3.829c0,0-2.336-1.357,5.714-1.79c8.051-0.432,4.486-1.297,5.776,0.433
	c1.29,1.728,3.257,0.061,3.257-0.617c0-0.679-1.105-2.347,0.615-3.521c1.72-1.172-1.413-1.05-1.721-0.802
	c-0.309,0.247-4.76,1.936-4.793,1.173c-0.185-4.26,2.295-5.422,5.162-6.484c2.908-1.076,2.941,2.299,3.379-1.975
	c0.402-3.933-4.116,0.741-4.179-1.667c0,0-2.335-3.211-1.229-3.458c1.107-0.247,5.039,1.174,5.348,0.309
	c0.306-0.864,4.423-4.076,6.39-3.087c1.968,0.988,5.898-1.852,5.96-2.038c0.062-0.185,2.396-5.309-0.675-5.741
	c-3.073-0.433-4.73-1.668-4.73-1.668s-5.9-2.222,1.657-3.086c0,0,3.811,2.346,5.224,1.297c0,0,5.04,1.543,4.116-1.667
	c0,0,3.382-5.804,2.274-5.619c0,0-0.431-4.261,0.369-7.964c0.8-3.705,2.581-12.288,3.749-3.088c1.166,9.2,2.825-1.791,4.484-0.556
	c1.66,1.234,0.738-0.803,0.738-0.803v-1.543c0,0,0.859-2.594-0.983-3.087c-1.845-0.494,0.185-6.915,2.273-3.458
	c2.088,3.458,3.871-0.248,3.687-1.297c-0.183-1.049-0.367-9.323,3.196-3.457c3.564,5.865,2.026-0.557,2.026-0.557
	s3.257-2.716,4.241-0.061c0.983,2.654,2.334-5.155,5.898-1.466c3.564,3.689,1.476-2.486,6.761,0.232
	c5.282,2.716,2.15-0.989,4.362,0.863c2.211,1.853,2.457-3.333,4.729-0.246c2.275,3.086,1.968-4.632,2.521-5.99
	c0.554-1.358,3.503-10.064,8.787-6.544c5.283,3.519,4.916,1.235,5.652,5.31c0.738,4.075,5.163-2.47,5.655,0.988
	c0.491,3.457-3.628,6.792,0.923,5.989c4.547-0.803,4.547,0.925,4.359-1.359c-0.183-2.284-3.87-3.21,4.303-7.903
	c0,0,2.027,0.556,2.273-1.111c0.247-1.667-1.781-6.915,5.898-3.951c0,0,0.863,0.37,0.736,2.84c-0.119,2.47,2.275,0.618,2.275,0.618
	s-0.738,3.518,0.614,2.284c1.352-1.234,5.409-1.605,6.761,0.124c1.351,1.729,2.457,0.68,2.09,3.211
	c-0.369,2.531,1.104-2.408,4.301-1.111c3.194,1.296,4.178,4.631,3.994,4.816c-0.185,0.185,1.659,1.913,3.503,0.062
	c1.845-1.853,3.624,0.431,5.222,0.863c1.597,0.433,15.363-6.792,13.828,8.026c0,0-4.305-1.358-2.337,4.57
	c1.967,5.927,3.626-0.556,7.804,0.309c4.177,0.864-1.967,5.433,0.43,5.926c0,0,0.062,3.273,1.293,2.841
	c1.229-0.432,3.747,1.729,3.503-0.802c-0.247-2.532-0.434-4.693,2.457-3.706c2.888,0.988,4.179-1.419,4.977-1.789
	c0.8-0.371,3.626,0.987,3.626,0.987s3.502,0.062,0.859,4.63c-2.644,4.569,1.105,3.458,2.15,2.161s2.949-6.915,3.564-3.52
	c0.613,3.396-0.493,5.742-1.597,7.411c-1.107,1.666-0.368,4.629,1.597,3.333c1.966-1.298,6.637,4.692,6.819,5.68
	c0.187,0.987,5.839,4.753,4.979,5.927c-0.86,1.173-5.468,5.865-0.86,5.865c4.61,0,11.858,0.988,10.509,2.1
	c-1.353,1.111-4.61,7.841,2.581,7.224c7.189-0.617,8.726-0.124,6.205,2.717c-2.52,2.839-1.106,1.975-0.984,2.778
	c0.123,0.802,1.107,3.827-2.64,5.186c-3.75,1.358-8.542-2.161-7.559,0.679c0.982,2.841,2.457,6.483,4.115,6.422
	c1.659-0.062,12.966-0.679,12.722,1.728c-0.249,2.409-3.565,2.656-0.307,3.829c3.257,1.173-1.845,3.396-1.538,4.939
	c0.308,1.543-0.429,3.457-1.412,4.136c-0.985,0.68,2.149,6.298,2.336,6.422c0.183,0.122-5.286,1.234-3.074,1.728
	c2.21,0.495,1.352,2.594,2.644,2.594c1.29,0,4.175-1.05,3.932,1.296c-0.246,2.347,0.431,3.705,1.968,4.013
	c1.535,0.309,0.367,5.001-1.293,5.434c-1.658,0.433-2.58,3.026-1.658,3.766c0.922,0.742-0.553,3.025-1.966,3.767
	c-1.416,0.741-1.416,0.741-1.416,0.741s2.706,2.47,0.124,3.458c-2.581,0.987-6.76,5.557-1.904,10.002
	c4.854,4.444,6.33,5.062,1.721,6.976c-4.608,1.915-6.759,2.286-2.582,7.595c4.178,5.31-1.904-1.049-4.177,5.063
	c-2.274,6.112-4.854-0.062-4.24,2.346c-1.288,3.766-2.597,5.394,0.965,6.196c0,0,0.02,0.781-0.474,2.943
	c-0.491,2.16,0.923,2.901-1.967,4.938c-2.886,2.037-4.548,1.667-2.886,5.002c1.657,3.333,0.06,11.175-0.431,11.67
	c-0.492,0.493-3.135,5.185-2.029,7.347c1.104,2.159,0.062,9.075-1.782,9.631c-1.844,0.555-3.381,5.248-2.396,5.988
	c0.981,0.742,0.981,0.742,0.981,0.742c1.475,2.717-5.651,11.731-3.319,14.448c2.338,2.716-1.35,6.791-1.84,7.903
	c-0.492,1.11-1.23,4.196-1.845,4.316c-0.615,0.118-2.826,2.35-2.826,3.213c0,0.865-0.493,3.705-0.493,3.705
	c-1.842-0.245-7.987,9.508-7.987,9.508c1.966,8.396-4.794,11.856-4.549,15.931c0.248,4.075-7.372,15.561-7.372,15.561
	c0.736,4.567-7.497,11.482-7.497,11.482c0.328,3.79-12.455,16.629-12.455,16.629l0.041,2.569c0,0,0.637,3.77,1.688,6.853
	c0,0,1.405,10.584,3.69,14.082c1.454,2.229,10.016,8.429,10.016,8.429c2.151-0.218,3.687,1.049,3.687,1.049
	c3.75,4.167,16.255,13.057,16.255,13.057c6.666,0.433,6.974,2.873,6.974,2.873c6.206,1.913,11.614,12.75,11.614,12.75
	s5.438-2.967,16.746,14.569c0,0,6.883,4.938,10.568,11.113c0,0,5.511,6.948,10.52,19.432
	c-43.416,37.059-100.429,58.974-161.984,58.974C311.989,497.184,222.697,434.275,185.166,344.595z"/>
<path id="left-collar_2_" fill="#808080" d="M327.995,434.014c0,0,0,3.951,15.566-9.713c0,0,29.825-25.52,32.61-29.967
	c2.785-4.444,11.025-11.565,16.222-14.488c0.646-0.365,4.752-3.788,13.108,5.434c8.357,9.219,17.043,3.952,17.043,3.952
	s-8.521-8.517-17.699-10.764c-9.174-2.243-18.188-12.285-18.188-12.285s-27.879-37.574-34.164-42.399
	c-9.015-6.915-25.072-22.061-27.038-50.876c0,0-1.503-10.332,0.73-13.307c0,0-9.117,17.867-22.918,32.718
	c0,0-5.286,7.28-7.245,8.836c-1.96,1.554-1.43,15.142-0.801,17.773c0,0,2.139,7.324,5.488,15.065c0,0,2.413,12.9,5.654,19.183
	c4.686,9.084,7.946,21.565,7.946,21.896s8.676,32.494,8.767,33.671C323.648,416.212,325.005,417.816,327.995,434.014z"/>
<path id="right-collar_2_" fill="#808080" d="M504.179,448.86c0,0,7.52-28.586-6.083-51.964c0,0-1.764-25.96-7.487-34.13
	c-4.336-6.188-3.963-11.782-6.781-20.574c-0.7-2.182-0.967-5.682-0.967-5.682s-17.765,14.943-13.277,39.333
	c0,0,0.977,9.871-13.52,12.102c-12.044,1.853-13.089,6.233-13.089,6.233c13.579-1.489,31.617,10.806,35.149-8.273
	C478.124,385.905,506.638,402.018,504.179,448.86z"/>
<g>
	<path fill="#FFFFFF" d="M12.511,230.741c0,2.626-2.127,4.756-4.754,4.756c-2.626,0-4.756-2.129-4.756-4.756
		c0-2.629,2.13-4.756,4.756-4.756C10.383,225.985,12.511,228.111,12.511,230.741z"/>
	<path fill="#FFFFFF" d="M143.797,157.48h-23.782c-1.929,0-3.492-1.561-3.492-3.494c0-1.926,1.562-3.487,3.492-3.487h23.782
		c1.929,0,3.49,1.562,3.49,3.487C147.287,155.92,145.726,157.48,143.797,157.48z"/>
	<path fill="#FFFFFF" d="M84.039,157.48H60.259c-1.929,0-3.493-1.561-3.493-3.494c0-1.926,1.564-3.487,3.493-3.487h23.779
		c1.929,0,3.491,1.562,3.491,3.487C87.53,155.92,85.968,157.48,84.039,157.48z"/>
	<path fill="#FFFFFF" d="M232.501,255.579c-28.961,0-52.523-23.564-52.523-52.525c0-4.454,0.558-8.874,1.658-13.141
		c8.978-33.649,33.294-124.877,33.294-124.877l0.042-0.146c4.277-13.621-1.613-28.689-14.01-35.828
		c-4.764-2.745-10.169-4.148-15.634-4.108c-0.013,0-0.025,0-0.038,0c-1.911,0-3.469-1.54-3.491-3.455
		c-0.02-1.927,1.529-3.507,3.458-3.529c6.702-0.083,13.349,1.675,19.192,5.041c15.187,8.749,22.416,27.196,17.212,43.895
		c-0.771,2.887-24.447,91.705-33.272,124.779c-0.946,3.667-1.43,7.504-1.43,11.368c0,25.11,20.432,45.542,45.543,45.542
		c25.116,0,45.542-20.432,45.542-45.542c0-15.452-7.736-29.725-20.695-38.178l-39.646-25.661c-1.617-1.045-2.081-3.208-1.033-4.827
		c1.052-1.619,3.208-2.083,4.827-1.034l39.656,25.667c14.953,9.751,23.877,26.21,23.877,44.033
		C285.028,232.015,261.464,255.579,232.501,255.579z"/>
	<path fill="#FFFFFF" d="M42,290.141c-20.806,0-37.733-16.923-37.733-37.73c0-1.932,1.56-3.495,3.489-3.495s3.49,1.562,3.49,3.495
		c0,16.953,13.798,30.746,30.754,30.746c14.301,0,26.928-10.114,30.024-24.05l0.036-0.149l36.949-137.913
		c3.827-17.067,19.302-29.448,36.821-29.448c7.355,0,14.491,2.121,20.625,6.131l20.624,13.353c1.619,1.044,2.081,3.208,1.034,4.825
		c-1.049,1.618-3.207,2.084-4.827,1.034l-20.637-13.359c-5.011-3.274-10.821-4.998-16.818-4.998
		c-14.301,0-26.928,10.114-30.022,24.05l-0.038,0.15L78.823,260.693C74.995,277.763,59.524,290.141,42,290.141z"/>
</g>
</svg>
